<svg width="22" height="20" viewBox="0 0 22 20" fill="none" xmlns="http://www.w3.org/2000/svg">
<path d="M10.9413 15.4583L10.8533 15.5417L10.7565 15.4583C6.57645 11.8667 3.81325 9.49167 3.81325 7.08333C3.81325 5.41667 5.13325 4.16667 6.89325 4.16667C8.24845 4.16667 9.5685 5 10.0349 6.13333H11.6717C12.1381 5 13.4581 4.16667 14.8133 4.16667C16.5733 4.16667 17.8933 5.41667 17.8933 7.08333C17.8933 9.49167 15.1301 11.8667 10.9413 15.4583ZM14.8133 2.5C13.2821 2.5 11.8125 3.175 10.8533 4.23333C9.8941 3.175 8.42445 2.5 6.89325 2.5C4.18285 2.5 2.05325 4.50833 2.05325 7.08333C2.05325 10.225 5.04525 12.8 9.5773 16.6917L10.8533 17.7917L12.1293 16.6917C16.6613 12.8 19.6533 10.225 19.6533 7.08333C19.6533 4.50833 17.5237 2.5 14.8133 2.5Z" fill="#818181"/>
</svg>
