<svg width="57" height="59" viewBox="0 0 57 59" fill="none" xmlns="http://www.w3.org/2000/svg">
<g clip-path="url(#clip0_1_9)">
<rect width="57" height="59" fill="white"/>
<path d="M41.8326 38.1429C45.2819 33.2707 46.8269 27.2302 46.1583 21.2296C45.4897 15.229 42.6568 9.71099 38.2265 5.77949C33.7962 1.84799 28.0951 -0.207042 22.2638 0.025532C16.4326 0.258106 10.9011 2.76113 6.77622 7.03383C2.65129 11.3066 0.23707 17.0339 0.0165526 23.0699C-0.203964 29.106 1.78548 35.0056 5.58688 39.5887C9.38827 44.1715 14.7213 47.0997 20.5189 47.7876C26.3166 48.4753 32.1514 46.872 36.8559 43.298H36.8522C36.9591 43.4455 37.0731 43.5857 37.2013 43.722L50.9164 57.9182C51.5844 58.6103 52.4907 58.9991 53.4355 58.9994C54.3806 58.9997 55.2871 58.6115 55.9555 57.92C56.6241 57.2288 56.9997 56.2907 57 55.3125C57.0003 54.3346 56.6252 53.3962 55.9572 52.7044L42.2421 38.5081C42.1147 38.3745 41.9779 38.2512 41.8326 38.1394V38.1429ZM42.7517 23.9688C42.7517 26.632 42.2447 29.2692 41.2603 31.7299C40.2756 34.1902 38.8324 36.426 37.013 38.3093C35.1935 40.1926 33.0335 41.6862 30.6566 42.7054C28.2794 43.7246 25.7316 44.2491 23.1586 44.2491C20.5856 44.2491 18.0378 43.7246 15.6607 42.7054C13.2835 41.6862 11.1236 40.1926 9.30422 38.3093C7.48484 36.426 6.04163 34.1902 5.05698 31.7299C4.07236 29.2692 3.56558 26.632 3.56558 23.9688C3.56558 18.59 5.62983 13.4316 9.30422 9.6283C12.9786 5.82495 17.9622 3.68827 23.1586 3.68827C28.355 3.68827 33.3384 5.82495 37.013 9.6283C40.6875 13.4316 42.7517 18.59 42.7517 23.9688Z" fill="#B0A7AB"/>
</g>
<defs>
<clipPath id="clip0_1_9">
<rect width="57" height="59" fill="white"/>
</clipPath>
</defs>
</svg>
